<svg width="184" height="160" viewBox="0 0 184 160" fill="none" xmlns="http://www.w3.org/2000/svg">
<path d="M117.262 79.2796L116.311 75.9112L117.262 79.2796ZM1.01422 137.542C0.00566312 139.191 0.524895 141.346 2.17392 142.354L29.0465 158.789C30.6955 159.798 32.8499 159.279 33.8585 157.63C34.867 155.981 34.3478 153.826 32.6988 152.818L8.81203 138.209L23.4211 114.322C24.4296 112.673 23.9104 110.518 22.2614 109.51C20.6123 108.501 18.4579 109.021 17.4494 110.67L1.01422 137.542ZM180.126 0.0573491C109.933 35.8275 86.2565 68.2413 84.91 98.9506L91.9032 99.2573C93.0729 72.5806 113.566 41.8324 183.304 6.29421L180.126 0.0573491ZM84.91 98.9506C84.19 115.37 96.5886 127.466 110.258 133.134C117.179 136.003 124.737 137.388 131.721 136.88C138.695 136.373 145.364 133.946 150.051 128.896L144.92 124.134C141.773 127.525 136.983 129.479 131.214 129.899C125.455 130.317 118.987 129.175 112.939 126.667C100.672 121.582 91.3651 111.531 91.9032 99.2573L84.91 98.9506ZM150.051 128.896C154.258 124.362 158.548 117.829 161.608 110.871C164.642 103.972 166.661 96.2153 165.806 89.3356C165.372 85.8404 164.183 82.482 161.922 79.6309C159.649 76.7655 156.454 74.6157 152.348 73.303C144.291 70.7272 132.58 71.3185 116.311 75.9112L118.213 82.6479C134.057 78.1749 144.138 78.0275 150.217 79.9706C153.178 80.9174 155.137 82.3413 156.437 83.9806C157.749 85.6341 158.551 87.7111 158.86 90.1984C159.491 95.2836 158.003 101.68 155.2 108.053C152.423 114.368 148.545 120.227 144.92 124.134L150.051 128.896ZM116.311 75.9112C90.099 83.3114 65.6829 97.5462 45.8628 110.278C35.7482 116.776 27.2953 122.571 19.7875 127.33C12.2917 132.082 6.78012 135.098 3.18002 135.966L4.82009 142.771C9.7406 141.585 16.2248 137.876 23.5352 133.243C30.8337 128.616 39.9977 122.366 49.6462 116.168C69.3521 103.509 93.0466 89.7529 118.213 82.6479L116.311 75.9112Z" fill="black"/>
</svg>
